# xmcd
#
# Track frame offsets:
# 150
# 15076
# 27754
# 41704
# 55809
# 67095
# 80261
# 92646
# 105213
# 118877
# 131234
# 145533
# 161080
# 173903
# 186642
# 200533
# 213699
# 227010
# 239267
# 252186
# 264506
# 278924
# 292043
# 302921
#
# Disc length: 4206 seconds
#
#
# Revision: 0
# Processed by: cddbd v1.5.2PL0 Copyright (c) Steve Scherf et al.
# Submitted via: FreeRIP 2.40 
#
DISCID=5e106c18
DTITLE=VARIADO - OOLETÂNIA 
DYEAR=1972
DGENRE=Country
TTITLE0=169 - ZICO E ZECA - LUAR DO SERTÃO
TTITLE1=170 - ZICO E ZECA - ADEUS AMOR
TTITLE2=171 - MARIANO DA SILVA E SERRINHA  - SAUDADE DE MATÃO
TTITLE3=172 - RAUL TORRES E SERRINHA - QUE MOÇA BONITA
TTITLE4=173 - TRIO GAUCHO - FESTA NO RIO GRANDE
TTITLE5=174 - TRIO GAUCHO - ANEL DE NOIVADO
TTITLE6=175 - ZÉ DO RANCHO E ZÉ DO PINHO - RINCÃO MATOGROSSENSE
TTITLE7=176 - ZÉ DO RANCHO E ZÉ DO PINHO - TRÊS COMPANHEIROS
TTITLE8=177 - RAUL TORRES E FLORENCIO - FEIJÃO QUEIMADO
TTITLE9=178 - RAUL TORRES E FLORENCIO - MANAIA DE CHEQUE
TTITLE10=179 - JUARÁ E JAGUARANDI - MILAGRE DAS CORRENTES
TTITLE11=180 - JUARÁ E JAGUARANDI - OS PONTEIROS APONTAM PARA O INFINITO
TTITLE12=181 - TRIO CAIPIRA - PRECE A VIRGEM
TTITLE13=182 - TRIO CAIPIRA - MARCHA MILITAR
TTITLE14=183 - PÁSSARO BRANCO E JURITI - CONSELHO DE VIOLEIRO
TTITLE15=184 - PÁSSARO BRANCO E JURITI - TEMPO DE BOIADEIRO
TTITLE16=185 - LEONCIO E LEONEL - CASINHA D AÇO
TTITLE17=186 - LEONCIO E LEONEL - ADEUS TERRA
TTITLE18=187 - DEMORAES E OLGUINHA - PORQUE CHORAS
TTITLE19=188 -DEMORAES E OLGUINHA - TRISTE FIQUEI
TTITLE20=189 - DEMORAES E RUTH - NÃO POSSO ESQUECER
TTITLE21=190 - DEMORAES E RUTH - LINDA CURITIBANA
TTITLE22=191 - MARIO E MARIM - ABRE A JANELA
TTITLE23=192 - MARIO E MARIM - LA JIGOTA
EXTD=
EXTT0=
EXTT1=
EXTT2=
EXTT3=
EXTT4=
EXTT5=
EXTT6=
EXTT7=
EXTT8=
EXTT9=
EXTT10=
EXTT11=
EXTT12=
EXTT13=
EXTT14=
EXTT15=
EXTT16=
EXTT17=
EXTT18=
EXTT19=
EXTT20=
EXTT21=
EXTT22=
EXTT23=
PLAYORDER=
